# xmcd
#
# Track frame offsets: 
#        150
#        15445
#        32543
#        46479
#        64728
#        79599
#        89680
#        97501
#        113667
#        120022
#        137260
#        161705
#        173501
#        198875
#        211897
#        247062
#
# Disc length: 3510 seconds
#
# Revision: 0
# Processed by: cddbd v1.5.2PL0 Copyright (c) Steve Scherf et al.
# Submitted via: ExactAudioCopyFreeDBPlugin 1.0
#
DISCID=b70db410
DTITLE=Morgan Davis - I Got My Own
DYEAR=2014
DGENRE=Blues
TTITLE0=I Got My Own
TTITLE1=Drive My Blues Away
TTITLE2=Now That Hubert is Gone
TTITLE3=Heat Wave in Alberta
TTITLE4=Too Much Competition
TTITLE5=Camillia Grill
TTITLE6=Wake Up!
TTITLE7=Wha' Do That Do-dad Do?
TTITLE8=Relaxin' at the Club
TTITLE9=Telegraph Sex
TTITLE10=That's Why
TTITLE11=Rosalee
TTITLE12=Cardova
TTITLE13=Somnambulatin' Mama
TTITLE14=Help Me
TTITLE15=Front Door Blues
EXTD=
EXTT0=
EXTT1=
EXTT2=
EXTT3=
EXTT4=
EXTT5=
EXTT6=
EXTT7=
EXTT8=
EXTT9=
EXTT10=
EXTT11=
EXTT12=
EXTT13=
EXTT14=
EXTT15=
PLAYORDER=
